<?xml version="1.0" encoding="UTF-8"?>
<svg width="540px" height="250px" viewBox="0 0 540 250" version="1.1" xmlns="http://www.w3.org/2000/svg" xmlns:xlink="http://www.w3.org/1999/xlink">
    <!-- Generator: Sketch 45.2 (43514) - http://www.bohemiancoding.com/sketch -->
    <title>Topper Fitness Logo</title>
    <desc>Created with Sketch.</desc>
    <defs>
        <path d="M124.576899,249.023402 C55.8469935,249.023402 0.13039624,193.306805 0.13039624,124.576899 C0.13039624,55.8469935 55.8469935,0.13039624 124.576899,0.13039624 C193.306805,0.13039624 249.023402,55.8469935 249.023402,124.576899 C249.023402,193.306805 193.306805,249.023402 124.576899,249.023402 Z M124.576899,101.562693 C136.089938,101.562693 145.423101,92.2295308 145.423101,80.7164917 C145.423101,69.2034526 136.089938,59.8702903 124.576899,59.8702903 C113.06386,59.8702903 103.730698,69.2034526 103.730698,80.7164917 C103.730698,92.2295308 113.06386,101.562693 124.576899,101.562693 Z M89.8888203,107.399629 L89.8888203,127.578752 L115.245861,127.578752 L115.245861,189.339582 L134.173738,189.339582 L134.173738,127.578752 L159.264978,127.578752 L159.264978,107.399629 L89.8888203,107.399629 Z M78.8820259,85.8863496 C76.1188966,85.8863496 73.8789376,88.1263085 73.8789376,90.8894379 L73.8789376,90.8894379 L73.8789376,143.421865 C73.8789376,146.184995 76.1188966,148.424954 78.8820259,148.424954 C81.6451553,148.424954 83.8851143,146.184995 83.8851143,143.421865 L83.8851143,143.421865 L83.8851143,90.8894379 C83.8851143,88.1263085 81.6451553,85.8863496 78.8820259,85.8863496 Z M63.0389129,94.2248301 C60.2757835,94.2248301 58.0358246,96.4647891 58.0358246,99.2279185 L58.0358246,99.2279185 L58.0358246,135.083385 C58.0358246,137.846514 60.2757835,140.086473 63.0389129,140.086473 L63.0389129,140.086473 C65.8020423,140.086473 68.0420012,137.846514 68.0420012,135.083385 L68.0420012,99.2279185 C68.0420012,96.4647891 65.8020423,94.2248301 63.0389129,94.2248301 Z M47.0290303,103.730698 C44.2659009,103.730698 42.0259419,105.970657 42.0259419,108.733786 L42.0259419,127.912292 C42.0259419,130.675421 44.2659009,132.91538 47.0290303,132.91538 C49.7921597,132.91538 52.0321186,130.675421 52.0321186,127.912292 L52.0321186,127.912292 L52.0321186,108.733786 C52.0321186,105.970657 49.7921597,103.730698 47.0290303,103.730698 Z M170.271773,85.8863496 C167.508643,85.8863496 165.268684,88.1263085 165.268684,90.8894379 L165.268684,143.421865 C165.268684,146.184995 167.508643,148.424954 170.271773,148.424954 C173.034902,148.424954 175.274861,146.184995 175.274861,143.421865 L175.274861,90.8894379 C175.274861,88.1263085 173.034902,85.8863496 170.271773,85.8863496 Z M186.114886,94.2248301 C183.351756,94.2248301 181.111797,96.4647891 181.111797,99.2279185 L181.111797,135.083385 C181.111797,137.846514 183.351756,140.086473 186.114886,140.086473 L186.114886,140.086473 C188.878015,140.086473 191.117974,137.846514 191.117974,135.083385 L191.117974,99.2279185 C191.117974,96.4647891 188.878015,94.2248301 186.114886,94.2248301 Z M202.124768,103.730698 C199.361639,103.730698 197.12168,105.970657 197.12168,108.733786 L197.12168,127.912292 C197.12168,130.675421 199.361639,132.91538 202.124768,132.91538 C204.887898,132.91538 207.127857,130.675421 207.127857,127.912292 L207.127857,108.733786 C207.127857,105.970657 204.887898,103.730698 202.124768,103.730698 Z" id="path-1"></path>
    </defs>
    <g id="Page-1" stroke="none" stroke-width="1" fill="none" fill-rule="evenodd">
        <g id="Group">
            <g id="Group-3">
                <mask id="mask-2" fill="white">
                    <use xlink:href="#path-1"></use>
                </mask>
                <use id="Combined-Shape" fill="#FFFFFF" xlink:href="#path-1"></use>
            </g>
            <path d="M309.924645,41.0253243 L270,41.0253243 L270,51.3567017 L283.658431,51.3567017 L283.658431,103.538913 L296.266214,103.538913 L296.266214,51.3567017 L309.924645,51.3567017 L309.924645,41.0253243 Z M323.199506,79.9868746 C323.199506,82.3800305 323.257875,84.5980441 323.374614,86.6409821 C323.491353,88.68392 323.768605,90.4349834 324.206377,91.8942248 C324.64415,93.3534662 325.300799,94.4916574 326.176343,95.3088326 C327.051888,96.1260078 328.219264,96.5345893 329.678505,96.5345893 C332.130031,96.5345893 333.822725,95.2504761 334.75664,92.6822112 C335.690554,90.1139464 336.157505,85.8822098 336.157505,79.9868746 C336.157505,74.0915394 335.690554,69.8598028 334.75664,67.291538 C333.822725,64.7232731 332.130031,63.43916 329.678505,63.43916 C328.219264,63.43916 327.051888,63.8477414 326.176343,64.6649166 C325.300799,65.4820918 324.64415,66.620283 324.206377,68.0795244 C323.768605,69.5387658 323.491353,71.2898292 323.374614,73.3327671 C323.257875,75.3757051 323.199506,77.5937187 323.199506,79.9868746 Z M311.117048,79.9868746 C311.117048,75.9593684 311.438076,72.3988728 312.080142,69.305281 C312.722208,66.2116893 313.772846,63.6288708 315.232088,61.556748 C316.691329,59.4846252 318.602907,57.9086682 320.966878,56.8288295 C323.330849,55.7489909 326.234696,55.2090797 329.678505,55.2090797 C333.297424,55.15071 336.303416,55.6322525 338.696572,56.6537214 C341.089728,57.6751904 342.986713,59.2365553 344.387585,61.3378629 C345.788457,63.4391705 346.780726,66.0365812 347.364422,69.1301729 C347.948119,72.2237647 348.239963,75.8426291 348.239963,79.9868746 C348.239963,84.0143809 347.918935,87.5748764 347.276868,90.6684682 C346.634802,93.7620599 345.584164,96.3448785 344.124923,98.4170012 C342.665681,100.489124 340.754104,102.021304 338.390133,103.013589 C336.026162,104.005873 333.122315,104.502007 329.678505,104.502007 C326.059587,104.560377 323.053594,104.108019 320.660439,103.14492 C318.267283,102.18182 316.370297,100.664232 314.969426,98.5921093 C313.568554,96.5199866 312.576285,93.9225758 311.992588,90.7997993 C311.408891,87.6770227 311.117048,84.0727505 311.117048,79.9868746 Z M358.888203,56.4348363 L370.445337,56.4348363 L370.445337,61.4254169 L370.620445,61.4254169 C371.962947,59.20737 373.465943,57.6168208 375.129478,56.6537214 C376.793013,55.6906221 378.850513,55.2090797 381.302038,55.2090797 C386.263459,55.2090797 389.911508,57.1498416 392.246294,61.0314237 C394.58108,64.9130058 395.748456,71.2314263 395.748456,79.9868746 C395.748456,88.742323 394.58108,95.0169668 392.246294,98.8109944 C389.911508,102.605022 386.263459,104.502007 381.302038,104.502007 C379.025622,104.502007 377.08486,104.078834 375.479694,103.232474 C373.874529,102.386114 372.429901,101.02904 371.145769,99.1612106 L370.970661,99.1612106 L370.970661,118.685763 L358.888203,118.685763 L358.888203,56.4348363 Z M370.970661,79.9868746 C370.970661,85.1234043 371.36465,88.990336 372.152641,91.5877857 C372.940631,94.1852353 374.677102,95.4839407 377.362106,95.4839407 C379.988741,95.4839407 381.696028,94.1852353 382.484018,91.5877857 C383.272008,88.990336 383.665998,85.1234043 383.665998,79.9868746 C383.665998,74.8503449 383.272008,70.9834132 382.484018,68.3859636 C381.696028,65.7885139 379.988741,64.4898085 377.362106,64.4898085 C374.677102,64.4898085 372.940631,65.7885139 372.152641,68.3859636 C371.36465,70.9834132 370.970661,74.8503449 370.970661,79.9868746 Z M406.834466,56.4348363 L418.3916,56.4348363 L418.3916,61.4254169 L418.566708,61.4254169 C419.90921,59.20737 421.412206,57.6168208 423.075741,56.6537214 C424.739276,55.6906221 426.796776,55.2090797 429.248301,55.2090797 C434.209722,55.2090797 437.857771,57.1498416 440.192557,61.0314237 C442.527343,64.9130058 443.694719,71.2314263 443.694719,79.9868746 C443.694719,88.742323 442.527343,95.0169668 440.192557,98.8109944 C437.857771,102.605022 434.209722,104.502007 429.248301,104.502007 C426.971885,104.502007 425.031123,104.078834 423.425957,103.232474 C421.820792,102.386114 420.376165,101.02904 419.092032,99.1612106 L418.916924,99.1612106 L418.916924,118.685763 L406.834466,118.685763 L406.834466,56.4348363 Z M418.916924,79.9868746 C418.916924,85.1234043 419.310913,88.990336 420.098904,91.5877857 C420.886894,94.1852353 422.623365,95.4839407 425.308369,95.4839407 C427.935004,95.4839407 429.642291,94.1852353 430.430281,91.5877857 C431.218271,88.990336 431.612261,85.1234043 431.612261,79.9868746 C431.612261,74.8503449 431.218271,70.9834132 430.430281,68.3859636 C429.642291,65.7885139 427.935004,64.4898085 425.308369,64.4898085 C422.623365,64.4898085 420.886894,65.7885139 420.098904,68.3859636 C419.310913,70.9834132 418.916924,74.8503449 418.916924,79.9868746 Z M477.457227,74.6460778 C477.398857,72.8366185 477.282119,71.2460692 477.107011,69.8743823 C476.931902,68.5026954 476.625465,67.3353198 476.187693,66.3722205 C475.749921,65.4091212 475.137048,64.6795114 474.349058,64.1833694 C473.561068,63.6872273 472.554206,63.43916 471.328443,63.43916 C470.102681,63.43916 469.095819,63.7164117 468.307829,64.2709234 C467.519839,64.8254351 466.892374,65.5550449 466.425417,66.4597746 C465.95846,67.3645042 465.622839,68.3713657 465.418545,69.4803891 C465.214252,70.5894126 465.112106,71.6984194 465.112106,72.8074429 L465.112106,74.6460778 L477.457227,74.6460778 Z M465.112106,81.8255096 L465.112106,85.5903335 C465.112106,86.9912053 465.214252,88.3482794 465.418545,89.6615967 C465.622839,90.9749139 465.95846,92.1422895 466.425417,93.1637585 C466.892374,94.1852275 467.505246,95.0023904 468.264052,95.6152718 C469.022857,96.2281532 469.956758,96.5345893 471.065781,96.5345893 C473.108719,96.5345893 474.597123,95.8049795 475.531038,94.3457381 C476.464952,92.8864967 477.107009,90.6684831 477.457227,87.6916306 L488.313928,87.6916306 C488.08045,93.1783783 486.62123,97.351746 483.936226,100.211859 C481.251222,103.071972 477.019485,104.502007 471.240889,104.502007 C466.863165,104.502007 463.448592,103.772398 460.997066,102.313156 C458.545541,100.853915 456.736108,98.9277451 455.568715,96.5345893 C454.401322,94.1414334 453.686305,91.4564695 453.423641,88.479617 C453.160978,85.5027646 453.029648,82.5259568 453.029648,79.5491044 C453.029648,76.397143 453.248531,73.3619664 453.686303,70.4434836 C454.124076,67.5250008 454.999607,64.9275901 456.312925,62.6511736 C457.626242,60.374757 459.508635,58.5653248 461.960161,57.2228227 C464.411686,55.8803207 467.680338,55.2090797 471.766214,55.2090797 C475.268393,55.2090797 478.143055,55.7781753 480.390287,56.9163836 C482.637519,58.0545919 484.403175,59.6597333 485.687307,61.7318561 C486.971439,63.8039789 487.846971,66.3138364 488.313928,69.261504 C488.780886,72.2091716 489.014361,75.4924155 489.014361,79.1113342 L489.014361,81.8255096 L465.112106,81.8255096 Z M499.487492,56.4348363 L499.487492,103.538913 L511.569951,103.538913 L511.569951,75.2589561 C511.569951,73.6829754 511.83261,72.3550857 512.357937,71.2752471 C512.883264,70.1954084 513.583689,69.3198767 514.459234,68.6486257 C515.334779,67.9773747 516.297864,67.4958322 517.348518,67.2039839 C518.399171,66.9121357 519.449809,66.7662137 520.500463,66.7662137 C521.142529,66.7662137 521.769994,66.7808059 522.382875,66.8099907 C522.995757,66.8391756 523.623221,66.8829521 524.265287,66.9413218 L524.265287,55.3841878 C523.915069,55.3258181 523.550264,55.2820415 523.170862,55.2528567 C522.791459,55.2236719 522.426654,55.2090797 522.076436,55.2090797 C519.566541,55.2090797 517.43608,55.8949128 515.684991,57.2665998 C513.933901,58.6382867 512.445497,60.462311 511.219734,62.7387276 L511.044626,62.7387276 L511.044626,56.4348363 L499.487492,56.4348363 Z M273.327054,144.589253 L273.327054,207.102841 L285.934836,207.102841 L285.934836,179.961087 L306.947807,179.961087 L306.947807,169.62971 L285.934836,169.62971 L285.934836,154.92063 L308.261118,154.92063 L308.261118,144.589253 L273.327054,144.589253 Z M316.545398,143.88882 L316.545398,154.220198 L328.627857,154.220198 L328.627857,143.88882 L316.545398,143.88882 Z M316.545398,159.998765 L316.545398,207.102841 L328.627857,207.102841 L328.627857,159.998765 L316.545398,159.998765 Z M343.916461,146.515442 L343.916461,159.998765 L337.787678,159.998765 L337.787678,168.228845 L343.916461,168.228845 L343.916461,195.195491 C343.916461,197.588647 344.062383,199.573185 344.354231,201.149166 C344.646079,202.725147 345.185991,203.994668 345.973981,204.957767 C346.761971,205.920866 347.900162,206.562923 349.388589,206.883956 C350.877015,207.204989 352.788592,207.365503 355.123379,207.365503 C356.52425,207.365503 357.85214,207.321727 359.107088,207.234172 C360.362035,207.146618 361.660741,207.102841 363.003243,207.102841 L363.003243,198.697653 C362.594655,198.756023 362.156889,198.799799 361.689932,198.828984 C361.222975,198.858169 360.756025,198.872761 360.289067,198.872761 C358.537978,198.872761 357.385194,198.478772 356.830683,197.690781 C356.276171,196.902791 355.998919,195.574901 355.998919,193.707072 L355.998919,168.228845 L363.003243,168.228845 L363.003243,159.998765 L355.998919,159.998765 L355.998919,146.515442 L343.916461,146.515442 Z M371.375077,159.998765 L371.375077,207.102841 L383.457536,207.102841 L383.457536,175.846047 C383.457536,170.651148 385.587996,168.053737 389.848981,168.053737 C391.65844,168.053737 392.971738,168.535279 393.788913,169.498379 C394.606088,170.461478 395.01467,172.168765 395.01467,174.62029 L395.01467,207.102841 L407.097128,207.102841 L407.097128,172.168777 C407.097128,167.440835 406.061082,164.026261 403.988959,161.924954 C401.916836,159.823646 398.954621,158.773008 395.102224,158.773008 C392.475589,158.773008 390.140838,159.312919 388.0979,160.392758 C386.054962,161.472597 384.391452,163.179883 383.107319,165.51467 L382.932211,165.51467 L382.932211,159.998765 L371.375077,159.998765 Z M441.997838,178.210006 C441.939469,176.400547 441.822731,174.809998 441.647622,173.438311 C441.472513,172.066624 441.166077,170.899248 440.728305,169.936149 C440.290532,168.97305 439.67766,168.24344 438.88967,167.747298 C438.101679,167.251156 437.094818,167.003088 435.869055,167.003088 C434.643292,167.003088 433.636431,167.28034 432.84844,167.834852 C432.06045,168.389363 431.432986,169.118973 430.966028,170.023703 C430.499071,170.928433 430.163451,171.935294 429.959157,173.044317 C429.754863,174.153341 429.652718,175.262348 429.652718,176.371371 L429.652718,178.210006 L441.997838,178.210006 Z M429.652718,185.389438 L429.652718,189.154262 C429.652718,190.555134 429.754863,191.912208 429.959157,193.225525 C430.163451,194.538842 430.499071,195.706218 430.966028,196.727687 C431.432986,197.749156 432.045858,198.566319 432.804663,199.1792 C433.563469,199.792082 434.497369,200.098518 435.606393,200.098518 C437.649331,200.098518 439.137735,199.368908 440.071649,197.909666 C441.005564,196.450425 441.64762,194.232411 441.997838,191.255559 L452.85454,191.255559 C452.621061,196.742307 451.161842,200.915674 448.476838,203.775788 C445.791833,206.635901 441.560097,208.065936 435.781501,208.065936 C431.403777,208.065936 427.989203,207.336326 425.537678,205.877085 C423.086152,204.417843 421.27672,202.491673 420.109327,200.098518 C418.941934,197.705362 418.226916,195.020398 417.964253,192.043545 C417.701589,189.066693 417.570259,186.089885 417.570259,183.113033 C417.570259,179.961071 417.789142,176.925895 418.226915,174.007412 C418.664687,171.088929 419.540219,168.491518 420.853536,166.215102 C422.166853,163.938685 424.049247,162.129253 426.500772,160.786751 C428.952298,159.444249 432.220949,158.773008 436.306825,158.773008 C439.809005,158.773008 442.683667,159.342104 444.930899,160.480312 C447.17813,161.61852 448.943786,163.223662 450.227918,165.295784 C451.512051,167.367907 452.387583,169.877765 452.85454,172.825432 C453.321497,175.7731 453.554972,179.056344 453.554972,182.675263 L453.554972,185.389438 L429.652718,185.389438 Z M472.871062,191.693329 L462.014361,191.693329 L462.014361,193.356856 C462.014361,195.633273 462.27702,197.690772 462.802347,199.529416 C463.327674,201.36806 464.246982,202.929425 465.5603,204.213558 C466.873617,205.49769 468.653865,206.460775 470.901096,207.102841 C473.148328,207.744907 475.964622,208.065936 479.350062,208.065936 C481.918327,208.065936 484.26767,207.803276 486.398162,207.277949 C488.528655,206.752622 490.367271,205.877091 491.914067,204.651328 C493.460863,203.425565 494.672015,201.893385 495.54756,200.054741 C496.423105,198.216096 496.860871,196.041859 496.860871,193.531964 C496.860871,189.971415 496.072892,187.155122 494.496912,185.082999 C492.920931,183.010876 490.235967,181.332774 486.441939,180.048641 L479.174954,177.597128 C477.132016,176.955062 475.745757,176.167083 475.016137,175.233169 C474.286516,174.299254 473.921711,173.248616 473.921711,172.081223 C473.921711,170.388503 474.490807,169.118982 475.629015,168.272622 C476.767223,167.426262 478.095113,167.003088 479.612724,167.003088 C481.597292,167.003088 482.983551,167.572184 483.771541,168.710392 C484.559531,169.848601 484.953521,171.64344 484.953521,174.094966 L495.810222,174.094966 L495.810222,172.168777 C495.810222,167.907792 494.496925,164.609956 491.87029,162.27517 C489.243656,159.940384 485.187026,158.773008 479.700278,158.773008 C476.606686,158.773008 473.965499,159.152405 471.776637,159.911211 C469.587775,160.670016 467.792935,161.69147 466.392063,162.975602 C464.991191,164.259735 463.969738,165.762731 463.327671,167.484636 C462.685605,169.20654 462.364577,171.030565 462.364577,172.956763 C462.364577,176.283834 463.210924,179.012574 464.903644,181.143067 C466.596364,183.273559 469.106222,184.922477 472.433292,186.08987 L480.926035,189.154262 C482.093428,189.621219 483.114881,190.248684 483.990426,191.036674 C484.865971,191.824664 485.303737,192.977448 485.303737,194.495059 C485.303737,196.362888 484.749233,197.763738 483.64021,198.697653 C482.531187,199.631567 481.042783,200.098518 479.174954,200.098518 C477.132016,200.098518 475.570651,199.471053 474.490812,198.216106 C473.410974,196.961158 472.871062,195.31224 472.871062,193.269302 L472.871062,191.693329 Z M515.914299,191.693329 L505.057597,191.693329 L505.057597,193.356856 C505.057597,195.633273 505.320257,197.690772 505.845584,199.529416 C506.370911,201.36806 507.290219,202.929425 508.603536,204.213558 C509.916853,205.49769 511.697101,206.460775 513.944333,207.102841 C516.191565,207.744907 519.007858,208.065936 522.393298,208.065936 C524.961563,208.065936 527.310907,207.803276 529.441399,207.277949 C531.571891,206.752622 533.410508,205.877091 534.957304,204.651328 C536.5041,203.425565 537.715252,201.893385 538.590797,200.054741 C539.466342,198.216096 539.904107,196.041859 539.904107,193.531964 C539.904107,189.971415 539.116129,187.155122 537.540148,185.082999 C535.964168,183.010876 533.279204,181.332774 529.485176,180.048641 L522.21819,177.597128 C520.175252,176.955062 518.788994,176.167083 518.059373,175.233169 C517.329752,174.299254 516.964947,173.248616 516.964947,172.081223 C516.964947,170.388503 517.534043,169.118982 518.672251,168.272622 C519.81046,167.426262 521.138349,167.003088 522.65596,167.003088 C524.640529,167.003088 526.026787,167.572184 526.814778,168.710392 C527.602768,169.848601 527.996757,171.64344 527.996757,174.094966 L538.853459,174.094966 L538.853459,172.168777 C538.853459,167.907792 537.540161,164.609956 534.913527,162.27517 C532.286892,159.940384 528.230262,158.773008 522.743515,158.773008 C519.649923,158.773008 517.008735,159.152405 514.819873,159.911211 C512.631011,160.670016 510.836171,161.69147 509.4353,162.975602 C508.034428,164.259735 507.012974,165.762731 506.370908,167.484636 C505.728842,169.20654 505.407813,171.030565 505.407813,172.956763 C505.407813,176.283834 506.254161,179.012574 507.946881,181.143067 C509.639601,183.273559 512.149458,184.922477 515.476529,186.08987 L523.969271,189.154262 C525.136664,189.621219 526.158118,190.248684 527.033663,191.036674 C527.909208,191.824664 528.346973,192.977448 528.346973,194.495059 C528.346973,196.362888 527.79247,197.763738 526.683447,198.697653 C525.574423,199.631567 524.086019,200.098518 522.21819,200.098518 C520.175252,200.098518 518.613887,199.471053 517.534049,198.216106 C516.45421,196.961158 515.914299,195.31224 515.914299,193.269302 L515.914299,191.693329 Z" id="Topper-Fitness" fill="#FFFFFF"></path>
        </g>
    </g>
</svg>
