<?xml version="1.0" encoding="UTF-8"?>
<svg width="560px" height="250px" viewBox="0 0 560 250" version="1.1" xmlns="http://www.w3.org/2000/svg" xmlns:xlink="http://www.w3.org/1999/xlink">
    <!-- Generator: Sketch 45.2 (43514) - http://www.bohemiancoding.com/sketch -->
    <title>Group</title>
    <desc>Created with Sketch.</desc>
    <defs>
        <path d="M124.576899,249.023402 C55.8469935,249.023402 0.13039624,193.306805 0.13039624,124.576899 C0.13039624,55.8469935 55.8469935,0.13039624 124.576899,0.13039624 C193.306805,0.13039624 249.023402,55.8469935 249.023402,124.576899 C249.023402,193.306805 193.306805,249.023402 124.576899,249.023402 Z M124.576899,101.562693 C136.089938,101.562693 145.423101,92.2295308 145.423101,80.7164917 C145.423101,69.2034526 136.089938,59.8702903 124.576899,59.8702903 C113.06386,59.8702903 103.730698,69.2034526 103.730698,80.7164917 C103.730698,92.2295308 113.06386,101.562693 124.576899,101.562693 Z M89.8888203,107.399629 L89.8888203,127.578752 L115.245861,127.578752 L115.245861,189.339582 L134.173738,189.339582 L134.173738,127.578752 L159.264978,127.578752 L159.264978,107.399629 L89.8888203,107.399629 Z M78.8820259,85.8863496 L78.8820259,85.8863496 C76.1188966,85.8863496 73.8789376,88.1263085 73.8789376,90.8894379 L73.8789376,143.421865 C73.8789376,146.184995 76.1188966,148.424954 78.8820259,148.424954 C81.6451553,148.424954 83.8851143,146.184995 83.8851143,143.421865 L83.8851143,143.421865 L83.8851143,90.8894379 C83.8851143,88.1263085 81.6451553,85.8863496 78.8820259,85.8863496 L78.8820259,85.8863496 Z M63.0389129,94.2248301 C60.2757835,94.2248301 58.0358246,96.4647891 58.0358246,99.2279185 L58.0358246,135.083385 C58.0358246,137.846514 60.2757835,140.086473 63.0389129,140.086473 C65.8020423,140.086473 68.0420012,137.846514 68.0420012,135.083385 L68.0420012,135.083385 L68.0420012,99.2279185 C68.0420012,96.4647891 65.8020423,94.2248301 63.0389129,94.2248301 Z M47.0290303,103.730698 C44.2659009,103.730698 42.0259419,105.970657 42.0259419,108.733786 L42.0259419,127.912292 C42.0259419,130.675421 44.2659009,132.91538 47.0290303,132.91538 C49.7921597,132.91538 52.0321186,130.675421 52.0321186,127.912292 L52.0321186,127.912292 L52.0321186,108.733786 C52.0321186,105.970657 49.7921597,103.730698 47.0290303,103.730698 Z M170.271773,85.8863496 C167.508643,85.8863496 165.268684,88.1263085 165.268684,90.8894379 L165.268684,143.421865 C165.268684,146.184995 167.508643,148.424954 170.271773,148.424954 L170.271773,148.424954 C173.034902,148.424954 175.274861,146.184995 175.274861,143.421865 L175.274861,90.8894379 C175.274861,88.1263085 173.034902,85.8863496 170.271773,85.8863496 Z M186.114886,94.2248301 C183.351756,94.2248301 181.111797,96.4647891 181.111797,99.2279185 L181.111797,135.083385 C181.111797,137.846514 183.351756,140.086473 186.114886,140.086473 L186.114886,140.086473 C188.878015,140.086473 191.117974,137.846514 191.117974,135.083385 L191.117974,99.2279185 C191.117974,96.4647891 188.878015,94.2248301 186.114886,94.2248301 Z M202.124768,103.730698 C199.361639,103.730698 197.12168,105.970657 197.12168,108.733786 L197.12168,127.912292 C197.12168,130.675421 199.361639,132.91538 202.124768,132.91538 C204.887898,132.91538 207.127857,130.675421 207.127857,127.912292 L207.127857,108.733786 C207.127857,105.970657 204.887898,103.730698 202.124768,103.730698 Z" id="path-1"></path>
    </defs>
    <g id="Page-1" stroke="none" stroke-width="1" fill="none" fill-rule="evenodd">
        <g id="Group">
            <g id="Group-3">
                <mask id="mask-2" fill="white">
                    <use xlink:href="#path-1"></use>
                </mask>
                <use id="Combined-Shape" fill="#FFFFFF" xlink:href="#path-1"></use>
            </g>
            <path d="M329.924645,41.0253243 L290,41.0253243 L290,51.3567017 L303.658431,51.3567017 L303.658431,103.538913 L316.266214,103.538913 L316.266214,51.3567017 L329.924645,51.3567017 L329.924645,41.0253243 Z M343.199506,79.9868746 C343.199506,82.3800305 343.257875,84.5980441 343.374614,86.6409821 C343.491353,88.68392 343.768605,90.4349834 344.206377,91.8942248 C344.64415,93.3534662 345.300799,94.4916574 346.176343,95.3088326 C347.051888,96.1260078 348.219264,96.5345893 349.678505,96.5345893 C352.130031,96.5345893 353.822725,95.2504761 354.75664,92.6822112 C355.690554,90.1139464 356.157505,85.8822098 356.157505,79.9868746 C356.157505,74.0915394 355.690554,69.8598028 354.75664,67.291538 C353.822725,64.7232731 352.130031,63.43916 349.678505,63.43916 C348.219264,63.43916 347.051888,63.8477414 346.176343,64.6649166 C345.300799,65.4820918 344.64415,66.620283 344.206377,68.0795244 C343.768605,69.5387658 343.491353,71.2898292 343.374614,73.3327671 C343.257875,75.3757051 343.199506,77.5937187 343.199506,79.9868746 Z M331.117048,79.9868746 C331.117048,75.9593684 331.438076,72.3988728 332.080142,69.305281 C332.722208,66.2116893 333.772846,63.6288708 335.232088,61.556748 C336.691329,59.4846252 338.602907,57.9086682 340.966878,56.8288295 C343.330849,55.7489909 346.234696,55.2090797 349.678505,55.2090797 C353.297424,55.15071 356.303416,55.6322525 358.696572,56.6537214 C361.089728,57.6751904 362.986713,59.2365553 364.387585,61.3378629 C365.788457,63.4391705 366.780726,66.0365812 367.364422,69.1301729 C367.948119,72.2237647 368.239963,75.8426291 368.239963,79.9868746 C368.239963,84.0143809 367.918935,87.5748764 367.276868,90.6684682 C366.634802,93.7620599 365.584164,96.3448785 364.124923,98.4170012 C362.665681,100.489124 360.754104,102.021304 358.390133,103.013589 C356.026162,104.005873 353.122315,104.502007 349.678505,104.502007 C346.059587,104.560377 343.053594,104.108019 340.660439,103.14492 C338.267283,102.18182 336.370297,100.664232 334.969426,98.5921093 C333.568554,96.5199866 332.576285,93.9225758 331.992588,90.7997993 C331.408891,87.6770227 331.117048,84.0727505 331.117048,79.9868746 Z M378.888203,56.4348363 L390.445337,56.4348363 L390.445337,61.4254169 L390.620445,61.4254169 C391.962947,59.20737 393.465943,57.6168208 395.129478,56.6537214 C396.793013,55.6906221 398.850513,55.2090797 401.302038,55.2090797 C406.263459,55.2090797 409.911508,57.1498416 412.246294,61.0314237 C414.58108,64.9130058 415.748456,71.2314263 415.748456,79.9868746 C415.748456,88.742323 414.58108,95.0169668 412.246294,98.8109944 C409.911508,102.605022 406.263459,104.502007 401.302038,104.502007 C399.025622,104.502007 397.08486,104.078834 395.479694,103.232474 C393.874529,102.386114 392.429901,101.02904 391.145769,99.1612106 L390.970661,99.1612106 L390.970661,118.685763 L378.888203,118.685763 L378.888203,56.4348363 Z M390.970661,79.9868746 C390.970661,85.1234043 391.36465,88.990336 392.152641,91.5877857 C392.940631,94.1852353 394.677102,95.4839407 397.362106,95.4839407 C399.988741,95.4839407 401.696028,94.1852353 402.484018,91.5877857 C403.272008,88.990336 403.665998,85.1234043 403.665998,79.9868746 C403.665998,74.8503449 403.272008,70.9834132 402.484018,68.3859636 C401.696028,65.7885139 399.988741,64.4898085 397.362106,64.4898085 C394.677102,64.4898085 392.940631,65.7885139 392.152641,68.3859636 C391.36465,70.9834132 390.970661,74.8503449 390.970661,79.9868746 Z M426.834466,56.4348363 L438.3916,56.4348363 L438.3916,61.4254169 L438.566708,61.4254169 C439.90921,59.20737 441.412206,57.6168208 443.075741,56.6537214 C444.739276,55.6906221 446.796776,55.2090797 449.248301,55.2090797 C454.209722,55.2090797 457.857771,57.1498416 460.192557,61.0314237 C462.527343,64.9130058 463.694719,71.2314263 463.694719,79.9868746 C463.694719,88.742323 462.527343,95.0169668 460.192557,98.8109944 C457.857771,102.605022 454.209722,104.502007 449.248301,104.502007 C446.971885,104.502007 445.031123,104.078834 443.425957,103.232474 C441.820792,102.386114 440.376165,101.02904 439.092032,99.1612106 L438.916924,99.1612106 L438.916924,118.685763 L426.834466,118.685763 L426.834466,56.4348363 Z M438.916924,79.9868746 C438.916924,85.1234043 439.310913,88.990336 440.098904,91.5877857 C440.886894,94.1852353 442.623365,95.4839407 445.308369,95.4839407 C447.935004,95.4839407 449.642291,94.1852353 450.430281,91.5877857 C451.218271,88.990336 451.612261,85.1234043 451.612261,79.9868746 C451.612261,74.8503449 451.218271,70.9834132 450.430281,68.3859636 C449.642291,65.7885139 447.935004,64.4898085 445.308369,64.4898085 C442.623365,64.4898085 440.886894,65.7885139 440.098904,68.3859636 C439.310913,70.9834132 438.916924,74.8503449 438.916924,79.9868746 Z M497.457227,74.6460778 C497.398857,72.8366185 497.282119,71.2460692 497.107011,69.8743823 C496.931902,68.5026954 496.625465,67.3353198 496.187693,66.3722205 C495.749921,65.4091212 495.137048,64.6795114 494.349058,64.1833694 C493.561068,63.6872273 492.554206,63.43916 491.328443,63.43916 C490.102681,63.43916 489.095819,63.7164117 488.307829,64.2709234 C487.519839,64.8254351 486.892374,65.5550449 486.425417,66.4597746 C485.95846,67.3645042 485.622839,68.3713657 485.418545,69.4803891 C485.214252,70.5894126 485.112106,71.6984194 485.112106,72.8074429 L485.112106,74.6460778 L497.457227,74.6460778 Z M485.112106,81.8255096 L485.112106,85.5903335 C485.112106,86.9912053 485.214252,88.3482794 485.418545,89.6615967 C485.622839,90.9749139 485.95846,92.1422895 486.425417,93.1637585 C486.892374,94.1852275 487.505246,95.0023904 488.264052,95.6152718 C489.022857,96.2281532 489.956758,96.5345893 491.065781,96.5345893 C493.108719,96.5345893 494.597123,95.8049795 495.531038,94.3457381 C496.464952,92.8864967 497.107009,90.6684831 497.457227,87.6916306 L508.313928,87.6916306 C508.08045,93.1783783 506.62123,97.351746 503.936226,100.211859 C501.251222,103.071972 497.019485,104.502007 491.240889,104.502007 C486.863165,104.502007 483.448592,103.772398 480.997066,102.313156 C478.545541,100.853915 476.736108,98.9277451 475.568715,96.5345893 C474.401322,94.1414334 473.686305,91.4564695 473.423641,88.479617 C473.160978,85.5027646 473.029648,82.5259568 473.029648,79.5491044 C473.029648,76.397143 473.248531,73.3619664 473.686303,70.4434836 C474.124076,67.5250008 474.999607,64.9275901 476.312925,62.6511736 C477.626242,60.374757 479.508635,58.5653248 481.960161,57.2228227 C484.411686,55.8803207 487.680338,55.2090797 491.766214,55.2090797 C495.268393,55.2090797 498.143055,55.7781753 500.390287,56.9163836 C502.637519,58.0545919 504.403175,59.6597333 505.687307,61.7318561 C506.971439,63.8039789 507.846971,66.3138364 508.313928,69.261504 C508.780886,72.2091716 509.014361,75.4924155 509.014361,79.1113342 L509.014361,81.8255096 L485.112106,81.8255096 Z M519.487492,56.4348363 L519.487492,103.538913 L531.569951,103.538913 L531.569951,75.2589561 C531.569951,73.6829754 531.83261,72.3550857 532.357937,71.2752471 C532.883264,70.1954084 533.583689,69.3198767 534.459234,68.6486257 C535.334779,67.9773747 536.297864,67.4958322 537.348518,67.2039839 C538.399171,66.9121357 539.449809,66.7662137 540.500463,66.7662137 C541.142529,66.7662137 541.769994,66.7808059 542.382875,66.8099907 C542.995757,66.8391756 543.623221,66.8829521 544.265287,66.9413218 L544.265287,55.3841878 C543.915069,55.3258181 543.550264,55.2820415 543.170862,55.2528567 C542.791459,55.2236719 542.426654,55.2090797 542.076436,55.2090797 C539.566541,55.2090797 537.43608,55.8949128 535.684991,57.2665998 C533.933901,58.6382867 532.445497,60.462311 531.219734,62.7387276 L531.044626,62.7387276 L531.044626,56.4348363 L519.487492,56.4348363 Z M293.327054,144.589253 L293.327054,207.102841 L305.934836,207.102841 L305.934836,179.961087 L326.947807,179.961087 L326.947807,169.62971 L305.934836,169.62971 L305.934836,154.92063 L328.261118,154.92063 L328.261118,144.589253 L293.327054,144.589253 Z M336.545398,143.88882 L336.545398,154.220198 L348.627857,154.220198 L348.627857,143.88882 L336.545398,143.88882 Z M336.545398,159.998765 L336.545398,207.102841 L348.627857,207.102841 L348.627857,159.998765 L336.545398,159.998765 Z M363.916461,146.515442 L363.916461,159.998765 L357.787678,159.998765 L357.787678,168.228845 L363.916461,168.228845 L363.916461,195.195491 C363.916461,197.588647 364.062383,199.573185 364.354231,201.149166 C364.646079,202.725147 365.185991,203.994668 365.973981,204.957767 C366.761971,205.920866 367.900162,206.562923 369.388589,206.883956 C370.877015,207.204989 372.788592,207.365503 375.123379,207.365503 C376.52425,207.365503 377.85214,207.321727 379.107088,207.234172 C380.362035,207.146618 381.660741,207.102841 383.003243,207.102841 L383.003243,198.697653 C382.594655,198.756023 382.156889,198.799799 381.689932,198.828984 C381.222975,198.858169 380.756025,198.872761 380.289067,198.872761 C378.537978,198.872761 377.385194,198.478772 376.830683,197.690781 C376.276171,196.902791 375.998919,195.574901 375.998919,193.707072 L375.998919,168.228845 L383.003243,168.228845 L383.003243,159.998765 L375.998919,159.998765 L375.998919,146.515442 L363.916461,146.515442 Z M391.375077,159.998765 L391.375077,207.102841 L403.457536,207.102841 L403.457536,175.846047 C403.457536,170.651148 405.587996,168.053737 409.848981,168.053737 C411.65844,168.053737 412.971738,168.535279 413.788913,169.498379 C414.606088,170.461478 415.01467,172.168765 415.01467,174.62029 L415.01467,207.102841 L427.097128,207.102841 L427.097128,172.168777 C427.097128,167.440835 426.061082,164.026261 423.988959,161.924954 C421.916836,159.823646 418.954621,158.773008 415.102224,158.773008 C412.475589,158.773008 410.140838,159.312919 408.0979,160.392758 C406.054962,161.472597 404.391452,163.179883 403.107319,165.51467 L402.932211,165.51467 L402.932211,159.998765 L391.375077,159.998765 Z M461.997838,178.210006 C461.939469,176.400547 461.822731,174.809998 461.647622,173.438311 C461.472513,172.066624 461.166077,170.899248 460.728305,169.936149 C460.290532,168.97305 459.67766,168.24344 458.88967,167.747298 C458.101679,167.251156 457.094818,167.003088 455.869055,167.003088 C454.643292,167.003088 453.636431,167.28034 452.84844,167.834852 C452.06045,168.389363 451.432986,169.118973 450.966028,170.023703 C450.499071,170.928433 450.163451,171.935294 449.959157,173.044317 C449.754863,174.153341 449.652718,175.262348 449.652718,176.371371 L449.652718,178.210006 L461.997838,178.210006 Z M449.652718,185.389438 L449.652718,189.154262 C449.652718,190.555134 449.754863,191.912208 449.959157,193.225525 C450.163451,194.538842 450.499071,195.706218 450.966028,196.727687 C451.432986,197.749156 452.045858,198.566319 452.804663,199.1792 C453.563469,199.792082 454.497369,200.098518 455.606393,200.098518 C457.649331,200.098518 459.137735,199.368908 460.071649,197.909666 C461.005564,196.450425 461.64762,194.232411 461.997838,191.255559 L472.85454,191.255559 C472.621061,196.742307 471.161842,200.915674 468.476838,203.775788 C465.791833,206.635901 461.560097,208.065936 455.781501,208.065936 C451.403777,208.065936 447.989203,207.336326 445.537678,205.877085 C443.086152,204.417843 441.27672,202.491673 440.109327,200.098518 C438.941934,197.705362 438.226916,195.020398 437.964253,192.043545 C437.701589,189.066693 437.570259,186.089885 437.570259,183.113033 C437.570259,179.961071 437.789142,176.925895 438.226915,174.007412 C438.664687,171.088929 439.540219,168.491518 440.853536,166.215102 C442.166853,163.938685 444.049247,162.129253 446.500772,160.786751 C448.952298,159.444249 452.220949,158.773008 456.306825,158.773008 C459.809005,158.773008 462.683667,159.342104 464.930899,160.480312 C467.17813,161.61852 468.943786,163.223662 470.227918,165.295784 C471.512051,167.367907 472.387583,169.877765 472.85454,172.825432 C473.321497,175.7731 473.554972,179.056344 473.554972,182.675263 L473.554972,185.389438 L449.652718,185.389438 Z M492.871062,191.693329 L482.014361,191.693329 L482.014361,193.356856 C482.014361,195.633273 482.27702,197.690772 482.802347,199.529416 C483.327674,201.36806 484.246982,202.929425 485.5603,204.213558 C486.873617,205.49769 488.653865,206.460775 490.901096,207.102841 C493.148328,207.744907 495.964622,208.065936 499.350062,208.065936 C501.918327,208.065936 504.26767,207.803276 506.398162,207.277949 C508.528655,206.752622 510.367271,205.877091 511.914067,204.651328 C513.460863,203.425565 514.672015,201.893385 515.54756,200.054741 C516.423105,198.216096 516.860871,196.041859 516.860871,193.531964 C516.860871,189.971415 516.072892,187.155122 514.496912,185.082999 C512.920931,183.010876 510.235967,181.332774 506.441939,180.048641 L499.174954,177.597128 C497.132016,176.955062 495.745757,176.167083 495.016137,175.233169 C494.286516,174.299254 493.921711,173.248616 493.921711,172.081223 C493.921711,170.388503 494.490807,169.118982 495.629015,168.272622 C496.767223,167.426262 498.095113,167.003088 499.612724,167.003088 C501.597292,167.003088 502.983551,167.572184 503.771541,168.710392 C504.559531,169.848601 504.953521,171.64344 504.953521,174.094966 L515.810222,174.094966 L515.810222,172.168777 C515.810222,167.907792 514.496925,164.609956 511.87029,162.27517 C509.243656,159.940384 505.187026,158.773008 499.700278,158.773008 C496.606686,158.773008 493.965499,159.152405 491.776637,159.911211 C489.587775,160.670016 487.792935,161.69147 486.392063,162.975602 C484.991191,164.259735 483.969738,165.762731 483.327671,167.484636 C482.685605,169.20654 482.364577,171.030565 482.364577,172.956763 C482.364577,176.283834 483.210924,179.012574 484.903644,181.143067 C486.596364,183.273559 489.106222,184.922477 492.433292,186.08987 L500.926035,189.154262 C502.093428,189.621219 503.114881,190.248684 503.990426,191.036674 C504.865971,191.824664 505.303737,192.977448 505.303737,194.495059 C505.303737,196.362888 504.749233,197.763738 503.64021,198.697653 C502.531187,199.631567 501.042783,200.098518 499.174954,200.098518 C497.132016,200.098518 495.570651,199.471053 494.490812,198.216106 C493.410974,196.961158 492.871062,195.31224 492.871062,193.269302 L492.871062,191.693329 Z M535.914299,191.693329 L525.057597,191.693329 L525.057597,193.356856 C525.057597,195.633273 525.320257,197.690772 525.845584,199.529416 C526.370911,201.36806 527.290219,202.929425 528.603536,204.213558 C529.916853,205.49769 531.697101,206.460775 533.944333,207.102841 C536.191565,207.744907 539.007858,208.065936 542.393298,208.065936 C544.961563,208.065936 547.310907,207.803276 549.441399,207.277949 C551.571891,206.752622 553.410508,205.877091 554.957304,204.651328 C556.5041,203.425565 557.715252,201.893385 558.590797,200.054741 C559.466342,198.216096 559.904107,196.041859 559.904107,193.531964 C559.904107,189.971415 559.116129,187.155122 557.540148,185.082999 C555.964168,183.010876 553.279204,181.332774 549.485176,180.048641 L542.21819,177.597128 C540.175252,176.955062 538.788994,176.167083 538.059373,175.233169 C537.329752,174.299254 536.964947,173.248616 536.964947,172.081223 C536.964947,170.388503 537.534043,169.118982 538.672251,168.272622 C539.81046,167.426262 541.138349,167.003088 542.65596,167.003088 C544.640529,167.003088 546.026787,167.572184 546.814778,168.710392 C547.602768,169.848601 547.996757,171.64344 547.996757,174.094966 L558.853459,174.094966 L558.853459,172.168777 C558.853459,167.907792 557.540161,164.609956 554.913527,162.27517 C552.286892,159.940384 548.230262,158.773008 542.743515,158.773008 C539.649923,158.773008 537.008735,159.152405 534.819873,159.911211 C532.631011,160.670016 530.836171,161.69147 529.4353,162.975602 C528.034428,164.259735 527.012974,165.762731 526.370908,167.484636 C525.728842,169.20654 525.407813,171.030565 525.407813,172.956763 C525.407813,176.283834 526.254161,179.012574 527.946881,181.143067 C529.639601,183.273559 532.149458,184.922477 535.476529,186.08987 L543.969271,189.154262 C545.136664,189.621219 546.158118,190.248684 547.033663,191.036674 C547.909208,191.824664 548.346973,192.977448 548.346973,194.495059 C548.346973,196.362888 547.79247,197.763738 546.683447,198.697653 C545.574423,199.631567 544.086019,200.098518 542.21819,200.098518 C540.175252,200.098518 538.613887,199.471053 537.534049,198.216106 C536.45421,196.961158 535.914299,195.31224 535.914299,193.269302 L535.914299,191.693329 Z" id="Topper-Fitness" fill="#FFFFFF"></path>
        </g>
    </g>
</svg>